<svg width="96" height="96" viewBox="0 0 96 96" fill="none" xmlns="http://www.w3.org/2000/svg"><path fill-rule="evenodd" clip-rule="evenodd" d="M17 31a2 2 0 0 1-2 2h-4a4 4 0 0 0-4 4v43c0 6.075 4.925 11 11 11h56V37a4 4 0 0 0-4-4H41a2 2 0 0 1-2-2v-3a5 5 0 0 0-5-5H22a5 5 0 0 0-5 5v3z" fill="#D2ECFA"/><path fill-rule="evenodd" clip-rule="evenodd" d="M31 41a4 4 0 0 0-4 4v32.902a14 14 0 0 1-8.314 12.793L18 91h57c6.075 0 11-4.925 11-11V45a4 4 0 0 0-4-4H31z" fill="#77C6EE"/><path d="M43 59v1a3 3 0 0 0 3 3h1a3 3 0 0 0 3-3v-1M66 59v1a3 3 0 0 0 3 3h1a3 3 0 0 0 3-3v-1" stroke="#0C7CD2" stroke-width="2" stroke-linecap="round"/><path d="M44 68h-4M76 68h-4" stroke="#1BA0E2" stroke-width="4" stroke-linecap="round"/><rect x="54" y="69" width="9" height="11" rx="4.5" fill="#0C7CD2"/><path fill-rule="evenodd" clip-rule="evenodd" d="M62.462 77.635A4.5 4.5 0 0 1 58.5 80a4.5 4.5 0 0 1-3.962-2.365A3.497 3.497 0 0 1 57.5 76h2c1.247 0 2.342.653 2.962 1.635z" fill="#D2ECFA"/><rect x="58" y="76" width="5" height="6" rx="2.5" fill="#D2ECFA"/><rect x="61" y="78" width="2" height="9" rx="1" fill="#D2ECFA"/><rect x="55" y="6" width="34" height="25" rx="12.5" fill="#FEE2CD"/><rect x="49" y="26" width="8" height="8" rx="4" fill="#FEE2CD"/><rect x="57" y="35" width="4" height="4" rx="2" fill="#FEE2CD"/><path d="M62 13h8l-8 11h8M72 16h4.167l-3.334 5H77M80 19h3.333l-2.666 4H84" stroke="#FCA867" stroke-width="2" stroke-linecap="round" stroke-linejoin="round"/></svg>